<?xml version="1.0" encoding="UTF-8" standalone="no"?>
<svg
   xmlns:dc="http://purl.org/dc/elements/1.1/"
   xmlns:cc="http://creativecommons.org/ns#"
   xmlns:rdf="http://www.w3.org/1999/02/22-rdf-syntax-ns#"
   xmlns:svg="http://www.w3.org/2000/svg"
   xmlns="http://www.w3.org/2000/svg"
   xmlns:sodipodi="http://sodipodi.sourceforge.net/DTD/sodipodi-0.dtd"
   xmlns:inkscape="http://www.inkscape.org/namespaces/inkscape"
   width="120"
   height="120"
   viewBox="0 0 31.75 31.75"
   version="1.1"
   id="svg8"
   sodipodi:docname="all_penguins.svg"
   inkscape:version="1.0.2 (e86c870879, 2021-01-15)">
  <defs
     id="defs2" />
  <sodipodi:namedview
     id="base"
     pagecolor="#ffffff"
     bordercolor="#666666"
     borderopacity="1.0"
     inkscape:pageopacity="0.0"
     inkscape:pageshadow="2"
     inkscape:zoom="1.9809297"
     inkscape:cx="2.538036"
     inkscape:cy="110.48308"
     inkscape:document-units="mm"
     inkscape:current-layer="layer3"
     inkscape:document-rotation="0"
     showgrid="false"
     units="px"
     inkscape:window-width="1702"
     inkscape:window-height="930"
     inkscape:window-x="0"
     inkscape:window-y="0"
     inkscape:window-maximized="1" />
  <metadata
     id="metadata5">
    <rdf:RDF>
      <cc:Work
         rdf:about="">
        <dc:format>image/svg+xml</dc:format>
        <dc:type
           rdf:resource="http://purl.org/dc/dcmitype/StillImage" />
        <dc:title></dc:title>
      </cc:Work>
    </rdf:RDF>
  </metadata>
  <g
     inkscape:label="Svartvit"
     inkscape:groupmode="layer"
     id="layer1"
     style="display:none"
     sodipodi:insensitive="true">
    <path
       style="fill:#000000;stroke-width:0.177246"
       d="m 13.134179,31.651166 c -1.367874,-0.18043 -3.4872278,-0.85238 -4.780367,-1.51563 -1.871747,-0.96002 -4.179215,-3.22966 -5.0074297,-4.92534 -1.5914865,-3.25839 -1.6801158,-7.72336 -0.2278948,-11.48085 1.0247424,-2.65144 2.7098602,-4.5706201 5.4768881,-6.2376401 4.4640374,-2.6894 6.9208324,-4.59636 8.5218534,-6.61464 0.435944,-0.54955 0.851411,-0.9404 0.923263,-0.86855 0.34663,0.34663 0.709996,2.45556 0.596276,3.46071 l -0.118698,1.04918 0.543199,-0.3868 c 0.298763,-0.21273 0.754695,-0.66407 1.013185,-1.00297 0.258491,-0.3389 0.531184,-0.55268 0.605988,-0.47507 0.277608,0.28804 0.872923,2.3693 0.872923,3.05181 0,0.78189 -0.07309,0.70941 2.140938,2.12277 3.360595,2.14527 5.28622,5.2741001 5.845846,9.4985401 0.238089,1.79727 0.119928,4.12317 -0.289284,5.69424 -0.438918,1.68512 -1.295306,3.20011 -2.596637,4.59356 -2.715779,2.90803 -6.119638,4.1954 -10.928887,4.13338 -1.132683,-0.0146 -2.298705,-0.0581 -2.591161,-0.0967 z m 5.683631,-1.1265 c 5.074026,-0.89873 8.492767,-3.70496 9.49005,-7.7898 0.358508,-1.46844 0.317005,-5.28368 -0.07569,-6.95754 -0.594746,-2.53514 -2.005266,-4.78931 -3.64922,-5.8318801 -1.428352,-0.90583 -1.561881,-0.82384 -2.840659,1.7442101 -0.615739,1.23654 -1.777129,3.21756 -2.580868,4.40229 l -1.461342,2.15404 0.927607,0.3153 c 1.188141,0.40386 2.476979,1.20634 2.848748,1.77373 0.272049,0.4152 0.269021,0.4806 -0.04735,1.02231 -0.778356,1.33273 -2.272203,1.79512 -5.849412,1.81056 l -2.340153,0.0101 -2.489801,2.46697 c -2.6276133,2.60352 -2.8788341,3.03045 -2.0880964,3.54856 1.8126654,1.18771 7.0732674,1.8772 10.1561944,1.33115 z m 3.183004,-13.17071 c -0.205126,-0.14999 -0.329285,-0.4602 -0.329285,-0.8227 0,-0.96498 1.087198,-1.43355 1.715448,-0.73934 0.872429,0.96402 -0.338235,2.3283 -1.386163,1.56204 z m -3.186586,4.78402 c 1.133944,-0.30198 1.619925,-0.56299 1.85054,-0.9939 0.246861,-0.46126 -0.269147,-0.94676 -1.770094,-1.66543 -1.062457,-0.50872 -1.296906,-0.55176 -3.013183,-0.55311 -1.794444,-0.001 -1.910137,0.0225 -3.231141,0.66815 -1.860639,0.90936 -2.118197,1.48499 -0.948717,2.12031 1.182601,0.64245 5.357705,0.89133 7.112595,0.42398 z m -5.26747,-0.96936 c -1.113796,-0.13246 -1.303724,-0.23853 -1.149022,-0.64168 0.08921,-0.23246 0.582443,-0.27351 3.286452,-0.27351 1.749822,0 3.307658,0.0484 3.461858,0.10758 0.350902,0.13466 0.365077,0.53097 0.02367,0.66198 -0.432127,0.16582 -4.555272,0.2726 -5.622968,0.14563 z m -3.7845902,-3.81466 c 0.7343882,-0.537 0.2478022,-1.88618 -0.6802563,-1.88618 -0.5030742,0 -0.9992445,0.51278 -0.9992445,1.03268 0,0.90987 0.9453857,1.39029 1.6795008,0.8535 z"
       id="path865" />
    <path
       style="fill:#000000;fill-opacity:1;stroke:#000000;stroke-width:0;stroke-linecap:butt;stroke-linejoin:miter;stroke-miterlimit:4;stroke-dasharray:none;stroke-opacity:1"
       d="m 7.5967544,-6.2400058 c 0,0 -0.041418,0.1031026 -0.02862,0.2093299 0.012798,0.1062273 0.084435,0.1741091 0.084435,0.1741091 l -0.083147,0.088222 c 0,0 -0.1053512,-0.138166 -0.073877,-0.2774823 0.031474,-0.1393166 0.1012092,-0.1941783 0.101209,-0.1941787 z"
       id="path1039" />
  </g>
  <g
     inkscape:groupmode="layer"
     id="layer2"
     inkscape:label="Hona"
     style="display:none"
     sodipodi:insensitive="true">
    <g
       id="g1085"
       transform="matrix(4.3607823,0,0,4.3607823,-25.60314,0)">
      <path
         style="fill:#000000;stroke-width:0.0678637"
         d="m 8.9055733,7.2413582 c -0.565186,-0.09685 -1.176774,-0.415363 -1.632858,-0.850389 -1.503214,-1.43381 -1.115157,-3.86618 0.767032,-4.807792 0.257986,-0.129065 0.613842,-0.340937 0.790791,-0.470828 0.427006,-0.31344801 0.957267,-0.88614801 0.957267,-1.03388001 0,-0.09418 0.01716,-0.101117 0.08424,-0.03403 0.04633,0.04633 0.09978,0.25562 0.118763,0.465073 l 0.03452,0.380824 0.213389,-0.180047 c 0.117363,-0.09903 0.228326,-0.180047 0.246583,-0.180047 0.01825,0 0.05453,0.199156 0.08059,0.442568 0.04564,0.42610801 0.0569,0.44741901 0.303068,0.57300001 0.140621,0.07174 0.394132,0.23612 0.563357,0.365292 l 0.307682,0.234855 0.07434,-0.163155 c 0.159263,-0.34954 0.752058,-0.0992 0.869072,0.367026 0.06159,0.245394 -0.05541,0.517892 -0.23331,0.543385 -0.08323,0.01193 -0.150934,0.0272 -0.150453,0.03393 4.74e-4,0.0067 0.06156,0.205833 0.135728,0.442438 0.385927,1.231145 -0.08926,2.609103 -1.154563,3.348037 -0.643116,0.446087 -1.5987135,0.656795 -2.3752305,0.523734 z m 1.2351777,-0.136144 c 0.558283,-0.117422 1.025941,-0.369806 1.37326,-0.741116 0.473889,-0.506621 0.628567,-0.967713 0.420215,-1.252649 -0.07888,-0.107873 -0.07888,-0.161324 0,-0.350108 0.121083,-0.289793 0.117727,-0.594607 -0.01134,-1.029201 -0.101025,-0.340191 -0.181472,-0.425109 -0.268827,-0.28377 -0.08904,0.144072 -0.389985,0.0647 -0.617562,-0.162872 -0.17695,-0.176948 -0.230737,-0.287688 -0.230737,-0.475043 0,-0.241031 -0.0037,-0.244309 -0.280028,-0.244309 -0.176302,0 -0.427095,0.07473 -0.6770717,0.201763 l -0.397045,0.201762 -0.337336,-0.209698 c -0.815418,-0.506889 -1.602182,-0.242198 -2.027616,0.682148 -0.191776,0.416675 -0.236961,1.14766 -0.08788,1.421699 0.06294,0.115695 0.06651,0.180504 0.01288,0.234129 -0.116061,0.11606 -0.08718,0.501906 0.059,0.78846 0.482693,0.946148 1.827708,1.480112 3.0700767,1.218805 z M 8.8477543,5.2533082 c -0.424112,-0.10747 -0.654904,-0.301236 -0.592603,-0.497529 0.06213,-0.195726 0.665023,-0.497533 1.076087,-0.538679 0.611047,-0.06116 1.5000967,0.382898 1.3821197,0.69034 -0.119917,0.312492 -1.2041087,0.513493 -1.8656037,0.345868 z m 1.2589217,-0.1425 c 0.456161,-0.135464 0.539706,-0.23998 0.34103,-0.426626 -0.419028,-0.393651 -1.1014207,-0.461363 -1.6826577,-0.166964 -0.455585,0.230757 -0.494803,0.363836 -0.150648,0.511195 0.486065,0.208121 0.97753,0.235258 1.4922757,0.0824 z M 8.6341183,4.7696162 c 0,-0.08863 0.121319,-0.101086 0.82579,-0.08483 0.5862597,0.01353 0.8339577,0.04366 0.8539537,0.103883 0.02154,0.06486 -0.172846,0.08483 -0.8257887,0.08483 -0.72146,0 -0.853955,-0.01612 -0.853955,-0.103884 z m 2.9852977,-1.422177 c 0.116451,-0.140314 0.03796,-0.315999 -0.115476,-0.258467 -0.109958,0.04122 -0.111839,0.03384 -0.02006,-0.07879 0.09429,-0.115732 0.08966,-0.120606 -0.06733,-0.07078 -0.151,0.04792 -0.158931,0.04187 -0.07599,-0.05808 0.08138,-0.09805 0.07308,-0.112539 -0.0684,-0.119456 -0.115019,-0.0056 -0.127085,-0.01674 -0.04224,-0.03891 0.145624,-0.03806 0.154107,-0.128726 0.01697,-0.181351 -0.432561,-0.165989 -0.470623,0.571787 -0.04153,0.804994 0.228877,0.12439 0.311386,0.124558 0.414065,8.42e-4 z m 0.337056,-0.43736 0.16668,-0.128093 -0.131214,-0.243646 c -0.07217,-0.134006 -0.148013,-0.243647 -0.168546,-0.243647 -0.02982,0 -0.274289,0.150867 -0.397626,0.245381 -0.03646,0.02793 0.26552,0.501375 0.318664,0.499607 0.02495,-8.28e-4 0.120369,-0.05915 0.212042,-0.129602 z m 0.629143,-0.248805 c 0.176025,-0.386328 -0.430301,-0.9977 -0.667609,-0.673165 -0.104081,0.142338 -0.09554,0.249613 0.02302,0.289132 0.04119,0.01373 0.09163,-0.03017 0.112083,-0.09756 0.02046,-0.06738 0.02721,-0.03826 0.015,0.0647 -0.01797,0.151566 -0.0046,0.1726 0.0703,0.110451 0.111754,-0.09275 0.124608,0.01632 0.01486,0.126073 -0.05828,0.05827 -0.03712,0.06896 0.08483,0.04283 0.137963,-0.02955 0.144981,-0.02359 0.04653,0.03952 -0.06377,0.04088 -0.09868,0.119327 -0.07757,0.174329 0.06225,0.162216 0.290873,0.116122 0.378559,-0.07633 z"
         id="path913-7"
         sodipodi:nodetypes="ssssssscssssscsssscssssssssssssscsssscssssssssssssssssssscsscsssccscssssscsssscsssscccs" />
      <path
         style="fill:#000000;stroke-width:0.0691565"
         d="M 7.8768005,4.236173 C 7.6543017,4.153323 7.6524223,3.710674 7.8742605,3.628625 8.0875869,3.549705 8.2761935,3.613255 8.3404236,3.785709 8.4567516,4.098027 8.1933217,4.354002 7.8768404,4.236173 Z M 8.1361383,3.927654 c 0,-0.117352 -0.1782109,-0.133788 -0.2468281,-0.02276 -0.052137,0.08436 0.1031823,0.211193 0.1916582,0.156514 0.030349,-0.01875 0.055173,-0.07894 0.055173,-0.13375 z m 2.6417907,0.232298 c -0.219104,-0.219102 0.03747,-0.636462 0.342282,-0.556756 0.196786,0.05146 0.30135,0.306717 0.201823,0.492685 -0.08796,0.164344 -0.406338,0.201838 -0.544105,0.06407 z m 0.370255,-0.130506 c 0.07127,-0.115313 -0.08903,-0.247547 -0.184421,-0.152145 -0.0798,0.0798 -0.02986,0.227327 0.07696,0.227327 0.03354,0 0.0819,-0.03383 0.107459,-0.07518 z"
         id="path913-6-5"
         sodipodi:nodetypes="ssccssssssssssssssss" />
      <path
         style="fill:#000000;fill-opacity:1;stroke:#000000;stroke-width:0;stroke-linecap:butt;stroke-linejoin:miter;stroke-miterlimit:4;stroke-dasharray:none;stroke-opacity:1"
         d="m 10.825894,3.3605122 c 0,0 -0.04142,0.1031026 -0.02862,0.2093299 0.0128,0.1062273 0.08444,0.1741091 0.08444,0.1741091 l -0.08315,0.088222 c 0,0 -0.105351,-0.138166 -0.07388,-0.2774823 0.03147,-0.1393166 0.101209,-0.1941783 0.10121,-0.1941787 z"
         id="path1039-6" />
      <path
         style="fill:#000000;fill-opacity:1;stroke:#000000;stroke-width:0;stroke-linecap:butt;stroke-linejoin:miter;stroke-miterlimit:4;stroke-dasharray:none;stroke-opacity:1"
         d="m 7.7793686,3.3458678 c 0,0 -0.04142,0.1031026 -0.02862,0.2093299 0.0128,0.1062273 0.08444,0.1741091 0.08444,0.1741091 l -0.08315,0.088222 c 0,0 -0.105351,-0.138166 -0.07388,-0.2774823 0.03147,-0.1393166 0.101209,-0.1941783 0.10121,-0.1941787 z"
         id="path1039-6-2" />
    </g>
  </g>
  <g
     inkscape:groupmode="layer"
     id="layer3"
     inkscape:label="Hane"
     style="display:none">
    <path
       style="display:inline;fill:#000000;stroke-width:0.294273"
       d="M 13.219872,31.561152 C 7.7639295,30.619019 3.1854282,26.04262 2.2530273,20.599337 1.3266857,15.191452 4.3731265,9.445337 9.4587119,7.0081512 12.617064,5.4945709 15.836366,2.8084407 16.825842,0.86116517 L 17.263414,0 17.622933,0.67182296 c 0.19778,0.36951884 0.313308,1.25361504 0.256757,1.96469194 -0.05655,0.7110726 -0.05991,1.2928605 -0.0077,1.2928605 0.05242,0 0.52936,-0.3310521 1.059852,-0.7356803 0.530492,-0.4046239 1.05135,-0.7356802 1.157461,-0.7356802 0.106124,0 0.192929,0.845204 0.192929,1.8782354 v 1.8782312 l 1.580587,0.7733087 c 7.26375,3.5537888 9.530087,12.9645358 4.6616,19.3568408 -3.030552,3.979101 -8.363039,6.069856 -13.304766,5.216521 z m 5.356014,-0.592886 c 3.720242,-0.783427 7.101118,-3.48828 7.892345,-6.314256 0.336074,-1.200345 0.329308,-1.506279 -0.04795,-2.163583 -0.383774,-0.668636 -0.386199,-0.89544 -0.01957,-1.791532 0.938375,-2.291723 -0.417007,-6.522811 -2.67179,-8.34061 -0.91567,-0.738208 -1.4406,-0.918725 -2.942743,-1.011981 -1.593611,-0.09893 -2.045846,0.0015 -3.523445,0.781916 l -1.694978,0.895411 -1.487934,-0.924941 c -3.376446,-2.0989003 -6.6719039,-1.163244 -8.4524067,2.399829 -1.1527548,2.306846 -1.4375744,4.436294 -0.8292982,6.200159 0.2922024,0.847387 0.3536045,1.421626 0.1714833,1.603781 -0.4403631,0.440338 -0.3350945,2.176004 0.2005035,3.304594 0.7011922,1.477632 2.814632,3.472702 4.6084279,4.350322 2.6015972,1.272827 5.8052792,1.640958 8.7973002,1.010891 z m -5.355571,-7.922727 c -1.664073,-0.348285 -2.79605,-1.176171 -2.79605,-2.044978 0,-0.89302 2.504528,-2.316003 4.490206,-2.551169 1.788767,-0.211822 3.947996,0.437993 5.353112,1.610989 0.846392,0.706597 0.936274,0.903347 0.653807,1.431145 -0.704264,1.315915 -4.845636,2.151609 -7.701075,1.554013 z m 5.207815,-0.725102 c 2.110112,-0.626633 2.388166,-1.069391 1.265061,-2.014417 -1.037329,-0.87285 -2.579593,-1.366029 -4.266265,-1.364263 -1.351595,0.0015 -4.190311,1.218923 -4.45594,1.911124 -0.557627,1.453161 4.291873,2.407531 7.457144,1.467556 z m -6.385357,-1.479496 c 0,-0.384327 0.526071,-0.438355 3.580814,-0.367817 2.54216,0.05868 3.616241,0.189313 3.702949,0.450461 0.0934,0.281224 -0.749501,0.367859 -3.580813,0.367859 -3.128417,0 -3.70295,-0.06991 -3.70295,-0.450469 z M 8.5850578,18.025628 c -0.9467707,-0.352541 -0.9547704,-2.236086 -0.010638,-2.585219 0.907738,-0.335818 1.7102922,-0.0654 1.9836022,0.668419 0.494995,1.328966 -0.625944,2.418182 -1.9726282,1.9168 z m 1.1035225,-1.3128 c 0,-0.499353 -0.7583177,-0.569291 -1.0502946,-0.09685 -0.2218645,0.358966 0.439061,0.898662 0.815537,0.665994 0.1291443,-0.07979 0.2347576,-0.335903 0.2347576,-0.569129 z m 11.2412737,0.988467 c -0.932325,-0.932316 0.159441,-2.708253 1.456467,-2.36909 0.837358,0.218971 1.282295,1.305132 0.858791,2.096457 -0.374285,0.699311 -1.729037,0.858855 -2.315258,0.272633 z m 1.575497,-0.555325 c 0.303266,-0.490676 -0.378838,-1.053354 -0.784743,-0.647403 -0.339562,0.339563 -0.127059,0.967315 0.327478,0.967315 0.142719,0 0.348498,-0.143952 0.457256,-0.319903 z"
       id="path913-6"
       sodipodi:nodetypes="cssscsssssscssccssscssccsssscssssssssssscsssssssccsccssssssssssssss" />
  </g>
</svg>
