<?xml version="1.0" encoding="UTF-8" standalone="no"?>
<svg
   xmlns:dc="http://purl.org/dc/elements/1.1/"
   xmlns:cc="http://creativecommons.org/ns#"
   xmlns:rdf="http://www.w3.org/1999/02/22-rdf-syntax-ns#"
   xmlns:svg="http://www.w3.org/2000/svg"
   xmlns="http://www.w3.org/2000/svg"
   width="120"
   height="120"
   viewBox="0 0 31.75 31.75"
   version="1.1"
   id="svg8">
  <defs
     id="defs2" />
  <metadata
     id="metadata5">
    <rdf:RDF>
      <cc:Work
         rdf:about="">
        <dc:format>image/svg+xml</dc:format>
        <dc:type
           rdf:resource="http://purl.org/dc/dcmitype/StillImage" />
        <dc:title></dc:title>
      </cc:Work>
    </rdf:RDF>
  </metadata>
  <g
     id="layer1"
     style="display:none">
    <path
       style="fill:#000000;fill-opacity:1;stroke:#000000;stroke-width:0;stroke-linecap:butt;stroke-linejoin:miter;stroke-miterlimit:4;stroke-dasharray:none;stroke-opacity:1"
       d="m 7.5967544,-6.2400058 c 0,0 -0.041418,0.1031026 -0.02862,0.2093299 0.012798,0.1062273 0.084435,0.1741091 0.084435,0.1741091 l -0.083147,0.088222 c 0,0 -0.1053512,-0.138166 -0.073877,-0.2774823 0.031474,-0.1393166 0.1012092,-0.1941783 0.101209,-0.1941787 z"
       id="path1039" />
  </g>
  <g
     id="layer2"
     style="display:inline">
    <g
       id="g1085"
       transform="matrix(4.3607823,0,0,4.3607823,-25.60314,0)">
      <path
         style="fill:#000000;stroke-width:0.0678637"
         d="m 8.9055733,7.2413582 c -0.565186,-0.09685 -1.176774,-0.415363 -1.632858,-0.850389 -1.503214,-1.43381 -1.115157,-3.86618 0.767032,-4.807792 0.257986,-0.129065 0.613842,-0.340937 0.790791,-0.470828 0.427006,-0.31344801 0.957267,-0.88614801 0.957267,-1.03388001 0,-0.09418 0.01716,-0.101117 0.08424,-0.03403 0.04633,0.04633 0.09978,0.25562 0.118763,0.465073 l 0.03452,0.380824 0.213389,-0.180047 c 0.117363,-0.09903 0.228326,-0.180047 0.246583,-0.180047 0.01825,0 0.05453,0.199156 0.08059,0.442568 0.04564,0.42610801 0.0569,0.44741901 0.303068,0.57300001 0.140621,0.07174 0.394132,0.23612 0.563357,0.365292 l 0.307682,0.234855 0.07434,-0.163155 c 0.159263,-0.34954 0.752058,-0.0992 0.869072,0.367026 0.06159,0.245394 -0.05541,0.517892 -0.23331,0.543385 -0.08323,0.01193 -0.150934,0.0272 -0.150453,0.03393 4.74e-4,0.0067 0.06156,0.205833 0.135728,0.442438 0.385927,1.231145 -0.08926,2.609103 -1.154563,3.348037 -0.643116,0.446087 -1.5987099,0.656795 -2.3752269,0.523734 z m 1.2351777,-0.136144 c 0.558283,-0.117422 1.025941,-0.369806 1.37326,-0.741116 0.473889,-0.506621 0.628567,-0.967713 0.420215,-1.252649 -0.07888,-0.107873 -0.07888,-0.161324 0,-0.350108 0.121083,-0.289793 0.117727,-0.594607 -0.01134,-1.029201 -0.101025,-0.340191 -0.181472,-0.425109 -0.268827,-0.28377 -0.08904,0.144072 -0.389985,0.0647 -0.617562,-0.162872 -0.17695,-0.176948 -0.230737,-0.287688 -0.230737,-0.475043 0,-0.241031 -0.0037,-0.244309 -0.280028,-0.244309 -0.176302,0 -0.427095,0.07473 -0.6770717,0.201763 l -0.397045,0.201762 -0.337336,-0.209698 c -0.815418,-0.506889 -1.602182,-0.242198 -2.027616,0.682148 -0.191776,0.416675 -0.236961,1.14766 -0.08788,1.421699 0.06294,0.115695 0.06651,0.180504 0.01288,0.234129 -0.116061,0.11606 -0.08718,0.501906 0.059,0.78846 0.482693,0.946148 1.827708,1.480112 3.0700767,1.218805 z M 8.8477543,5.2533082 c -0.424112,-0.10747 -0.654904,-0.301236 -0.592603,-0.497529 0.06213,-0.195726 0.665023,-0.497533 1.076087,-0.538679 0.611047,-0.06116 1.5000967,0.382898 1.3821197,0.69034 -0.119917,0.312492 -1.2041087,0.513493 -1.8656037,0.345868 z m 1.2589217,-0.1425 c 0.456161,-0.135464 0.539706,-0.23998 0.34103,-0.426626 -0.419028,-0.393651 -1.1014207,-0.461363 -1.6826577,-0.166964 -0.455585,0.230757 -0.494803,0.363836 -0.150648,0.511195 0.486065,0.208121 0.97753,0.235258 1.4922757,0.0824 z M 8.6341183,4.7696162 c 0,-0.08863 0.121319,-0.101086 0.82579,-0.08483 0.5862597,0.01353 0.8339577,0.04366 0.8539537,0.103883 0.02154,0.06486 -0.172846,0.08483 -0.8257887,0.08483 -0.72146,0 -0.853955,-0.01612 -0.853955,-0.103884 z m 2.9852977,-1.422177 c 0.116451,-0.140314 0.03796,-0.315999 -0.115476,-0.258467 -0.109958,0.04122 -0.111839,0.03384 -0.02006,-0.07879 0.09429,-0.115732 0.08966,-0.120606 -0.06733,-0.07078 -0.151,0.04792 -0.158931,0.04187 -0.07599,-0.05808 0.08138,-0.09805 0.07308,-0.112539 -0.0684,-0.119456 -0.115019,-0.0056 -0.127085,-0.01674 -0.04224,-0.03891 0.145624,-0.03806 0.154107,-0.128726 0.01697,-0.181351 -0.432561,-0.165989 -0.470623,0.571787 -0.04153,0.804994 0.228877,0.12439 0.311386,0.124558 0.414065,8.42e-4 z m 0.337056,-0.43736 0.16668,-0.128093 -0.131214,-0.243646 c -0.07217,-0.134006 -0.148013,-0.243647 -0.168546,-0.243647 -0.02982,0 -0.274289,0.150867 -0.397626,0.245381 -0.03646,0.02793 0.26552,0.501375 0.318664,0.499607 0.02495,-8.28e-4 0.120369,-0.05915 0.212042,-0.129602 z m 0.629143,-0.248805 c 0.176025,-0.386328 -0.430301,-0.9977 -0.667609,-0.673165 -0.104081,0.142338 -0.09554,0.249613 0.02302,0.289132 0.04119,0.01373 0.09163,-0.03017 0.112083,-0.09756 0.02046,-0.06738 0.02721,-0.03826 0.015,0.0647 -0.01797,0.151566 -0.0046,0.1726 0.0703,0.110451 0.111754,-0.09275 0.124608,0.01632 0.01486,0.126073 -0.05828,0.05827 -0.03712,0.06896 0.08483,0.04283 0.137963,-0.02955 0.144981,-0.02359 0.04653,0.03952 -0.06377,0.04088 -0.09868,0.119327 -0.07757,0.174329 0.06225,0.162216 0.290873,0.116122 0.378559,-0.07633 z"
         id="path913-7" />
      <path
         style="fill:#000000;stroke-width:0.0691565"
         d="M 7.8768005,4.236173 C 7.6543017,4.153323 7.6524223,3.710674 7.8742605,3.628625 8.0875869,3.549705 8.2761935,3.613255 8.3404236,3.785709 8.4567516,4.098027 8.1933217,4.354002 7.8768404,4.236173 Z M 8.1361383,3.927654 c 0,-0.117352 -0.1782109,-0.133788 -0.2468281,-0.02276 -0.052137,0.08436 0.1031823,0.211193 0.1916582,0.156514 0.030349,-0.01875 0.055173,-0.07894 0.055173,-0.13375 z m 2.6417907,0.232298 c -0.219104,-0.219102 0.03747,-0.636462 0.342282,-0.556756 0.196786,0.05146 0.30135,0.306717 0.201823,0.492685 -0.08796,0.164344 -0.406338,0.201838 -0.544105,0.06407 z m 0.370255,-0.130506 c 0.07127,-0.115313 -0.08903,-0.247547 -0.184421,-0.152145 -0.0798,0.0798 -0.02986,0.227327 0.07696,0.227327 0.03354,0 0.0819,-0.03383 0.107459,-0.07518 z"
         id="path913-6-5" />
      <path
         style="fill:#000000;fill-opacity:1;stroke:#000000;stroke-width:0;stroke-linecap:butt;stroke-linejoin:miter;stroke-miterlimit:4;stroke-dasharray:none;stroke-opacity:1"
         d="m 10.825894,3.3605122 c 0,0 -0.04142,0.1031026 -0.02862,0.2093299 0.0128,0.1062273 0.08444,0.1741091 0.08444,0.1741091 l -0.08315,0.088222 c 0,0 -0.105351,-0.138166 -0.07388,-0.2774823 0.03147,-0.1393166 0.101209,-0.1941783 0.10121,-0.1941787 z"
         id="path1039-6" />
      <path
         style="fill:#000000;fill-opacity:1;stroke:#000000;stroke-width:0;stroke-linecap:butt;stroke-linejoin:miter;stroke-miterlimit:4;stroke-dasharray:none;stroke-opacity:1"
         d="m 7.7793686,3.3458678 c 0,0 -0.04142,0.1031026 -0.02862,0.2093299 0.0128,0.1062273 0.08444,0.1741091 0.08444,0.1741091 l -0.08315,0.088222 c 0,0 -0.105351,-0.138166 -0.07388,-0.2774823 0.03147,-0.1393166 0.101209,-0.1941783 0.10121,-0.1941787 z"
         id="path1039-6-2" />
    </g>
  </g>
  <g
     id="layer3"
     style="display:inline" />
</svg>
