<?xml version="1.0" encoding="UTF-8" standalone="no"?>
<svg
   xmlns:dc="http://purl.org/dc/elements/1.1/"
   xmlns:cc="http://creativecommons.org/ns#"
   xmlns:rdf="http://www.w3.org/1999/02/22-rdf-syntax-ns#"
   xmlns:svg="http://www.w3.org/2000/svg"
   xmlns="http://www.w3.org/2000/svg"
   width="120"
   height="120"
   viewBox="0 0 31.75 31.75"
   version="1.1"
   id="svg8">
  <defs
     id="defs2" />
  <metadata
     id="metadata5">
    <rdf:RDF>
      <cc:Work
         rdf:about="">
        <dc:format>image/svg+xml</dc:format>
        <dc:type
           rdf:resource="http://purl.org/dc/dcmitype/StillImage" />
        <dc:title></dc:title>
      </cc:Work>
    </rdf:RDF>
  </metadata>
  <g
     id="layer1"
     style="display:none">
    <path
       style="fill:#000000;fill-opacity:1;stroke:#000000;stroke-width:0;stroke-linecap:butt;stroke-linejoin:miter;stroke-miterlimit:4;stroke-dasharray:none;stroke-opacity:1"
       d="m 7.5967544,-6.2400058 c 0,0 -0.041418,0.1031026 -0.02862,0.2093299 0.012798,0.1062273 0.084435,0.1741091 0.084435,0.1741091 l -0.083147,0.088222 c 0,0 -0.1053512,-0.138166 -0.073877,-0.2774823 0.031474,-0.1393166 0.1012092,-0.1941783 0.101209,-0.1941787 z"
       id="path1039" />
  </g>
  <g
     id="layer2"
     style="display:none" />
  <g
     id="layer3"
     style="display:inline">
    <path
       style="display:inline;fill:#000000;stroke-width:0.294273"
       d="M 13.219872,31.561152 C 7.7639295,30.619019 3.1854282,26.04262 2.2530273,20.599337 1.3266857,15.191452 4.3731265,9.445337 9.4587119,7.0081512 12.617064,5.4945709 15.836366,2.8084407 16.825842,0.86116517 L 17.263414,0 17.622933,0.67182296 c 0.19778,0.36951884 0.313308,1.25361504 0.256757,1.96469194 -0.05655,0.7110726 -0.05991,1.2928605 -0.0077,1.2928605 0.05242,0 0.52936,-0.3310521 1.059852,-0.7356803 0.530492,-0.4046239 1.05135,-0.7356802 1.157461,-0.7356802 0.106124,0 0.192929,0.845204 0.192929,1.8782354 v 1.8782312 l 1.580587,0.7733087 c 7.26375,3.5537888 9.530087,12.9645358 4.6616,19.3568408 -3.030552,3.979101 -8.363039,6.069856 -13.304766,5.216521 z m 5.356014,-0.592886 c 3.720242,-0.783427 7.101118,-3.48828 7.892345,-6.314256 0.336074,-1.200345 0.329308,-1.506279 -0.04795,-2.163583 -0.383774,-0.668636 -0.386199,-0.89544 -0.01957,-1.791532 0.938375,-2.291723 -0.417007,-6.522811 -2.67179,-8.34061 -0.91567,-0.738208 -1.4406,-0.918725 -2.942743,-1.011981 -1.593611,-0.09893 -2.045846,0.0015 -3.523445,0.781916 l -1.694978,0.895411 -1.487934,-0.924941 c -3.376446,-2.0989003 -6.6719039,-1.163244 -8.4524067,2.399829 -1.1527548,2.306846 -1.4375744,4.436294 -0.8292982,6.200159 0.2922024,0.847387 0.3536045,1.421626 0.1714833,1.603781 -0.4403631,0.440338 -0.3350945,2.176004 0.2005035,3.304594 0.7011922,1.477632 2.814632,3.472702 4.6084279,4.350322 2.6015972,1.272827 5.8052792,1.640958 8.7973002,1.010891 z m -5.355571,-7.922727 c -1.664073,-0.348285 -2.79605,-1.176171 -2.79605,-2.044978 0,-0.89302 2.504528,-2.316003 4.490206,-2.551169 1.788767,-0.211822 3.947996,0.437993 5.353112,1.610989 0.846392,0.706597 0.936274,0.903347 0.653807,1.431145 -0.704264,1.315915 -4.845636,2.151609 -7.701075,1.554013 z m 5.207815,-0.725102 c 2.110112,-0.626633 2.388166,-1.069391 1.265061,-2.014417 -1.037329,-0.87285 -2.579593,-1.366029 -4.266265,-1.364263 -1.351595,0.0015 -4.190311,1.218923 -4.45594,1.911124 -0.557627,1.453161 4.291873,2.407531 7.457144,1.467556 z m -6.385357,-1.479496 c 0,-0.384327 0.526071,-0.438355 3.580814,-0.367817 2.54216,0.05868 3.616241,0.189313 3.702949,0.450461 0.0934,0.281224 -0.749501,0.367859 -3.580813,0.367859 -3.128417,0 -3.70295,-0.06991 -3.70295,-0.450469 z M 8.5850578,18.025628 c -0.9467707,-0.352541 -0.9547704,-2.236086 -0.010638,-2.585219 0.907738,-0.335818 1.7102922,-0.0654 1.9836022,0.668419 0.494995,1.328966 -0.625944,2.418182 -1.9726282,1.9168 z m 1.1035225,-1.3128 c 0,-0.499353 -0.7583177,-0.569291 -1.0502946,-0.09685 -0.2218645,0.358966 0.439061,0.898662 0.815537,0.665994 0.1291443,-0.07979 0.2347576,-0.335903 0.2347576,-0.569129 z m 11.2412737,0.988467 c -0.932325,-0.932316 0.159441,-2.708253 1.456467,-2.36909 0.837358,0.218971 1.282295,1.305132 0.858791,2.096457 -0.374285,0.699311 -1.729037,0.858855 -2.315258,0.272633 z m 1.575497,-0.555325 c 0.303266,-0.490676 -0.378838,-1.053354 -0.784743,-0.647403 -0.339562,0.339563 -0.127059,0.967315 0.327478,0.967315 0.142719,0 0.348498,-0.143952 0.457256,-0.319903 z"
       id="path913-6" />
  </g>
</svg>
