<?xml version="1.0" encoding="UTF-8" standalone="no"?>
<!-- Created with Inkscape (http://www.inkscape.org/) -->

<svg
   width="64"
   height="64"
   viewBox="0 0 16.933333 16.933334"
   version="1.1"
   id="svg5"
   xmlns="http://www.w3.org/2000/svg"
   xmlns:svg="http://www.w3.org/2000/svg">
  <defs
     id="defs2" />
  <g
     id="layer1">
    <path
       style="fill:#000000;stroke-width:0.0594553"
       d="M 1.7987679,14.872921 C 0.82749901,14.504967 0.16913204,13.262947 0.02816761,11.532658 -0.11894273,9.7269316 0.31794638,8.0957087 1.1566493,7.3192164 1.6514059,6.8611586 1.8732521,6.8035376 3.1520865,6.8009355 3.704989,6.7998242 4.2716749,6.7839704 4.4113889,6.7657432 L 4.665414,6.7325952 4.661284,4.5385397 C 4.659004,3.3318093 4.671452,2.3213434 4.688934,2.2930588 4.762896,2.1733855 5.6074564,2.1090973 7.9048433,2.0482561 c 2.6856457,-0.071122 4.2095427,-0.069025 4.4091597,0.00607 0.221012,0.08314 0.255059,0.22752 0.196479,0.8331762 -0.02975,0.307574 -0.06822,1.2548528 -0.08549,2.1050644 -0.01727,0.8502139 -0.04853,1.6207758 -0.06946,1.71236 -0.03467,0.1516478 -0.02545,0.1636834 0.103215,0.1347515 0.279708,-0.062893 2.012332,-0.154441 2.263095,-0.1195789 0.728577,0.1012941 1.342969,0.5438375 1.680925,1.2107598 0.563327,1.1116699 0.698838,3.2232709 0.30619,4.7711429 -0.237637,0.936785 -0.579536,1.473238 -1.154878,1.812045 -0.234774,0.138253 -0.334627,0.161378 -0.635289,0.147131 -1.026392,-0.04863 -7.0789483,-0.01164 -7.5805621,0.04634 -0.3106544,0.0359 -0.7788656,0.09212 -1.0404695,0.124925 -0.2616036,0.0328 -1.3318003,0.07393 -2.3782152,0.09139 -1.5393779,0.02569 -1.9442266,0.01598 -2.1207742,-0.05092 z M 12.45075,9.2742062 c -0.0056,-0.4582758 0.01841,-1.0071356 0.05345,-1.2196876 0.03504,-0.2125538 0.06424,-0.5001689 0.0649,-0.6391452 9.79e-4,-0.2064666 -0.01888,-0.2526856 -0.108574,-0.2526856 -0.101345,0 -0.113573,0.090124 -0.159321,1.1742439 -0.02725,0.6458326 -0.0495,1.2594886 -0.04943,1.3636792 1.79e-4,0.2383758 -0.05889,0.2548787 -0.906824,0.2534922 -0.356125,-6.614e-4 -1.976492,-0.00348 -3.600817,-0.00643 L 4.7908202,9.9422842 4.759053,9.8157144 C 4.7415825,9.7461007 4.7228723,9.1102948 4.7174777,8.402814 4.7120828,7.6953314 4.6887312,7.0858393 4.6655847,7.0483886 4.6424389,7.0109355 4.5815202,6.9964012 4.5302122,7.0160904 c -0.073511,0.028211 -0.088553,0.1074132 -0.070956,0.3736107 0.047077,0.7121187 0.093796,1.9577042 0.085695,2.2847205 -0.00465,0.1878849 0.00781,0.3679394 0.027695,0.4001154 0.023252,0.03762 1.4374114,0.05393 3.9622569,0.0457 l 3.9260999,-0.01281 -0.01025,-0.8332279 z M 12.013853,8.6044707 c 0.0071,-0.9396362 0.02954,-2.1833277 0.100655,-5.5684959 l 0.0099,-0.470208 -1.367474,0.024292 C 10.0048,2.6034288 8.4214113,2.6143498 7.238269,2.6143498 H 5.0871003 l -0.027896,0.145931 c -0.015343,0.080261 -0.00345,1.2441003 0.026427,2.586308 0.029877,1.3422101 0.037655,2.8615415 0.017285,3.3762945 l -0.037037,0.9359172 3.291432,0.015888 c 1.8102877,0.00874 3.3716967,0.022336 3.4697977,0.030226 l 0.178367,0.014338 z M 8.8840667,8.1725 C 7.9848041,8.1504338 7.1554015,8.1094093 7.0409498,8.0813471 6.9264982,8.0532851 6.6723263,8.0290789 6.4761234,8.0275576 6.1644223,8.0251234 6.1193913,8.0103226 6.1193913,7.9101585 c 0,-0.1874221 0.2791105,-0.2159519 1.4566569,-0.1488951 0.6049584,0.034451 1.541381,0.086153 2.0809387,0.1148938 1.1252791,0.059942 1.4269291,0.1041095 1.4269291,0.2089338 0,0.085283 -0.198348,0.1505061 -0.416188,0.1368525 C 10.585977,8.2168212 9.7833294,8.1945689 8.8840667,8.1725 Z M 8.3489681,6.3903574 C 8.1037147,6.3658808 7.4757174,6.3423565 6.9534183,6.3380824 6.015681,6.33042 6.0052524,6.3288907 6.1210428,6.2160968 6.2258609,6.1140004 6.3676157,6.0975941 7.4571373,6.0614467 c 1.8871441,-0.062612 3.5964867,-0.048808 3.7441777,0.030235 0.218185,0.1167678 0.124749,0.2661595 -0.17795,0.2845139 -0.746337,0.045255 -2.2814163,0.053383 -2.6743969,0.014158 z M 7.1478018,4.4906067 C 6.1011117,4.4556772 5.8863217,4.3995349 6.1225872,4.2226339 6.3116621,4.0810646 6.7055103,4.0451104 8.0073352,4.0505755 c 2.6025898,0.010921 3.4542158,0.134801 2.8935188,0.4208788 -0.151698,0.0774 -1.7614466,0.085616 -3.7530522,0.019146 z"
       id="path836" />
  </g>
</svg>
