<?xml version="1.0" encoding="UTF-8" standalone="no"?>
<svg
   xmlns:osb="http://www.openswatchbook.org/uri/2009/osb"
   xmlns:dc="http://purl.org/dc/elements/1.1/"
   xmlns:cc="http://creativecommons.org/ns#"
   xmlns:rdf="http://www.w3.org/1999/02/22-rdf-syntax-ns#"
   xmlns:svg="http://www.w3.org/2000/svg"
   xmlns="http://www.w3.org/2000/svg"
   width="64"
   height="64"
   viewBox="0 0 16.933334 16.933334"
   version="1.1"
   id="svg8">
  <defs
     id="defs2">
    <linearGradient
       id="linearGradient905"
       osb:paint="gradient">
      <stop
         style="stop-color:#000000;stop-opacity:1;"
         offset="0"
         id="stop901" />
      <stop
         style="stop-color:#000000;stop-opacity:0;"
         offset="1"
         id="stop903" />
    </linearGradient>
  </defs>
  <metadata
     id="metadata5">
    <rdf:RDF>
      <cc:Work
         rdf:about="">
        <dc:format>image/svg+xml</dc:format>
        <dc:type
           rdf:resource="http://purl.org/dc/dcmitype/StillImage" />
        <dc:title></dc:title>
      </cc:Work>
    </rdf:RDF>
  </metadata>
  <g
     id="layer1"
     transform="translate(-35.353612,-20.517519)">
    <g
       id="g988"
       transform="matrix(0.09124044,0,0,0.09124044,33.937643,18.645491)">
      <path
         style="fill:#000000;stroke-width:2.85714"
         d="m 529.18137,688.25134 c -15.23551,-15.23552 -177.61822,-18.21943 -228.38682,-4.19677 -5.43107,1.50008 -8.02227,-8.5 -46.45503,-179.28187 -22.38673,-99.47881 -40.69123,-182.42067 -40.67667,-184.31525 0.0199,-2.58895 2.87714,-2.43891 11.50151,0.60395 17.37373,6.1298 64.35381,12.37732 119.9874,15.9562 97.05333,6.24338 232.98533,-4.28954 263.05701,-20.38342 4.07857,-2.18277 5.48054,-1.99563 5.48054,0.73158 0,2.77582 -77.86108,360.51121 -80.88817,371.64352 -0.33651,1.23749 -1.9654,0.89643 -3.61977,-0.75794 z"
         id="path881"
         transform="scale(0.26458333)" />
      <path
         style="fill:#000000;stroke-width:2.85714"
         d="m 509.4036,680.54805 c -35.75337,-8.42451 -168.41771,-7.89151 -203.11128,0.81603 -5.58384,1.40146 -7.359,0.246 -9.90669,-6.44868 -5.51744,-14.49835 -79.83917,-340.99435 -79.83917,-350.73419 0,-3.05301 2.53678,-3.06969 14.01548,-0.0922 48.29326,12.52711 183.93063,19.19425 263.12737,12.9338 48.9314,-3.86799 94.88015,-10.73505 107.85715,-16.11929 7.29757,-3.02782 9.28571,-3.08596 9.28571,-0.27155 0,3.10041 -19.00314,91.50924 -66.5686,309.69869 -6.59454,30.25 -13.27863,54.83274 -14.85357,54.62834 -1.57494,-0.20457 -10.57783,-2.18937 -20.0064,-4.411 z"
         id="path883"
         transform="scale(0.26458333)" />
      <path
         style="fill:#000000;stroke-width:1.01015"
         d=""
         id="path897"
         transform="scale(0.26458333)" />
      <path
         style="fill:#000000;stroke:#ffffff;stroke-width:2.065;stroke-miterlimit:4;stroke-dasharray:none;stroke-opacity:1"
         d="M 91.047292,204.7628 C 78.443829,203.87815 66.886898,203.17235 66.36253,200.3531 65.665339,196.60467 64.028574,190.27669 64.332797,189.77694 55.136772,143.00121 56.938164,151.62574 51.963923,129.54037 43.35337,91.281001 39.460698,73.188271 39.772594,72.876371 c 0.08881,-0.0888 2.058015,0.31065 4.376041,0.88766 9.098308,2.2648 24.228584,4.15319 37.899005,4.73012 14.790481,0.49739 8.140319,-0.58614 -1.114244,-1.23748 -22.941955,-1.63205 -36.871647,-4.04717 -42.555762,-7.37828 -2.804712,-1.64367 -2.650266,-3.17651 0.477839,-4.74239 16.443645,-8.23137 84.681687,-10.38654 120.589187,-3.80856 10.47761,1.91941 16.3972,4.47023 15.80935,6.81243 -0.81646,3.25299 -15.71651,6.71294 -36.37998,8.4478 -10.87025,0.91265 -11.48528,0.98632 -11.48528,1.3757 0,0.7761 12.39196,0.11609 23.14197,-1.23265 9.07182,-1.13816 15.50273,-2.37991 19.66215,-3.79657 1.95166,-0.66473 3.60048,-1.15659 3.66404,-1.09304 0.14183,0.14183 -2.30808,12.00921 -5.9662,28.900369 -7.56507,34.36561 -7.48409,34.88258 -21.94293,99.02712 -1.78085,2.1458 -13.04039,4.26761 -26.61585,5.01566 -7.13632,0.39322 -22.543184,0.38153 -28.284638,-0.0214 z M 114.5021,78.763551 c 1.51017,-0.57952 -0.49668,-0.82119 -6.81907,-0.82119 -6.85006,0 -8.064641,0.10878 -8.064641,0.72236 0,0.33829 14.017141,0.43136 14.883711,0.0988 z m 10.74564,-0.73548 c 0.1016,-0.30851 -0.39508,-0.42856 -1.77312,-0.42856 -1.78799,0 -2.25666,0.22896 -1.66984,0.81578 0.40122,0.40123 3.29038,0.0763 3.44296,-0.38722 z"
         id="path919" />
      <path
         style="fill:#000000;stroke:#ff0000;stroke-width:1.01015;stroke-opacity:1"
         d=""
         id="path921"
         transform="scale(0.26458333)" />
      <path
         style="fill:#000000;stroke:#ff0000;stroke-width:1.01015;stroke-opacity:1"
         d=""
         id="path923"
         transform="scale(0.26458333)" />
      <circle
         id="path936"
         style="fill:#000000;stroke:#ff0000;stroke-width:0.264583"
         cx="93.035286"
         cy="89.146858"
         r="0.017661087" />
      <ellipse
         style="fill:#ffffff;fill-opacity:1;stroke:none;stroke-width:0.264583;stroke-opacity:1"
         id="path938"
         ry="44.881603"
         rx="5.4388847"
         cy="139.93509"
         cx="107.65418" />
      <ellipse
         style="fill:#ffffff;fill-opacity:1;stroke:none;stroke-width:0.264583;stroke-opacity:1"
         id="path938-3"
         ry="44.881603"
         rx="5.4388847"
         cy="139.93489"
         cx="133.06894" />
      <ellipse
         style="fill:#ffffff;fill-opacity:1;stroke:none;stroke-width:0.264583;stroke-opacity:1"
         id="path938-6"
         ry="44.881603"
         rx="5.4388847"
         cy="139.93489"
         cx="81.554848" />
      <ellipse
         style="fill:#000000;fill-opacity:1;stroke:#ffffff;stroke-width:2.065;stroke-miterlimit:4;stroke-dasharray:none;stroke-opacity:1;image-rendering:auto"
         id="path971"
         transform="rotate(13.97869)"
         cx="120.10446"
         cy="19.314619"
         rx="70.255829"
         ry="20.575594" />
    </g>
  </g>
</svg>
